<!DOCTYPE svg PUBLIC "-//W3C//DTD SVG 20010904//EN" "http://www.w3.org/TR/2001/REC-SVG-20010904/DTD/svg10.dtd">
<svg version="1.0" xmlns="http://www.w3.org/2000/svg" width="840px" height="840px" viewBox="0 0 2800 2800" preserveAspectRatio="xMidYMid meet">
<g id="layer101" fill="#000000" fill-rule="evenodd">
<path d="M1163 2724 C762 2645,428 2400,234 2045 C128 1850,78 1647,77 1415 C76 1034,211 714,485 451 C755 191,1075 69,1455 83 C1810 96,2084 214,2336 464 C2541 668,2667 905,2714 1177 C2732 1280,2735 1521,2720 1611 C2626 2175,2186 2627,1637 2724 C1521 2745,1266 2745,1163 2724 M1152 2630 C906 2576,708 2472,538 2308 C366 2141,246 1937,188 1714 C112 1417,152 1075,296 812 C650 162,1475 -44,2087 362 C2373 553,2573 864,2631 1208 C2647 1304,2644 1510,2626 1615 C2535 2136,2119 2551,1599 2639 C1495 2657,1251 2652,1152 2630 M717 2326 C542 2249,426 2131,330 1934 C261 1793,237 1682,236 1505 C235 1379,239 1340,258 1265 C305 1082,404 928,509 875 C576 841,667 826,734 839 C822 855,870 885,1008 1013 C1083 1083,1127 1103,1181 1094 C1229 1086,1259 1050,1259 1001 C1259 970,1248 954,1151 855 C1015 716,995 676,995 560 C995 487,999 466,1022 418 C1104 251,1316 163,1513 214 C1636 246,1722 314,1776 420 C1801 467,1804 486,1804 560 C1804 637,1801 650,1770 707 C1748 749,1705 799,1638 864 C1543 956,1540 961,1540 1002 C1540 1025,1546 1052,1553 1062 C1572 1087,1620 1102,1659 1094 C1702 1086,1729 1067,1844 967 C1947 876,1989 852,2068 839 C2255 808,2412 920,2502 1150 C2570 1320,2584 1562,2536 1742 C2473 1981,2341 2177,2175 2277 C2080 2334,1970 2363,1970 2332 C1970 2327,1991 2308,2017 2289 C2099 2231,2209 2117,2256 2043 C2350 1892,2386 1737,2376 1530 C2370 1396,2350 1318,2309 1266 L2289 1241 2310 1229 C2330 1218,2331 1217,2313 1198 C2302 1185,2287 1180,2272 1182 C2248 1187,2232 1175,2249 1165 C2267 1154,2261 1131,2238 1124 C2227 1121,2213 1122,2206 1129 C2200 1135,2181 1140,2163 1139 C2143 1139,2121 1148,2109 1160 L2088 1181 2111 1218 C2192 1352,2221 1430,2234 1555 C2260 1798,2083 2133,1848 2286 C1811 2310,1776 2330,1771 2330 C1744 2330,1751 2304,1787 2266 C1924 2124,2015 1934,2045 1726 C2054 1670,2064 1607,2069 1585 C2076 1554,2075 1541,2063 1528 C2050 1514,2051 1511,2072 1505 C2090 1499,2091 1496,2078 1493 C2069 1490,2059 1480,2056 1469 C2053 1454,2057 1449,2073 1449 C2093 1449,2093 1447,2067 1428 C2044 1411,2041 1405,2051 1393 C2064 1377,2065 1378,2020 1362 C1980 1348,1947 1360,1917 1401 C1899 1425,1898 1433,1910 1521 C1938 1738,1881 1958,1755 2118 C1699 2189,1610 2260,1610 2234 C1610 2231,1627 2191,1649 2145 C1703 2032,1740 1902,1747 1797 C1751 1728,1756 1710,1768 1710 C1780 1710,1780 1707,1766 1691 C1745 1668,1745 1650,1765 1650 C1786 1650,1783 1636,1757 1620 L1735 1607 1759 1598 L1783 1589 1760 1573 C1744 1562,1739 1550,1742 1533 C1747 1511,1744 1510,1694 1510 C1649 1510,1638 1513,1620 1536 C1602 1559,1600 1576,1600 1667 C1600 1725,1592 1820,1584 1878 C1560 2037,1484 2260,1459 2244 C1446 2236,1447 1963,1459 1955 C1466 1951,1464 1937,1454 1919 C1440 1891,1440 1890,1459 1890 C1486 1890,1485 1873,1458 1866 L1436 1860 1460 1840 C1480 1824,1482 1820,1467 1820 C1456 1820,1450 1812,1450 1798 C1450 1784,1454 1779,1465 1783 C1474 1787,1480 1783,1480 1774 C1480 1766,1473 1760,1465 1760 C1456 1760,1450 1753,1450 1745 C1450 1736,1456 1730,1465 1730 C1473 1730,1480 1723,1480 1715 C1480 1706,1473 1700,1465 1700 C1448 1700,1444 1674,1460 1665 C1476 1654,1471 1643,1435 1616 L1401 1590 1366 1612 C1330 1635,1321 1653,1340 1665 C1355 1674,1351 1700,1335 1700 C1315 1700,1316 1709,1336 1731 C1351 1748,1351 1750,1329 1758 L1305 1767 1327 1778 C1346 1788,1348 1794,1339 1811 C1332 1824,1331 1835,1338 1843 C1344 1850,1345 1861,1341 1867 C1337 1874,1337 1905,1341 1937 C1350 2014,1350 2210,1340 2235 C1333 2252,1330 2250,1312 2215 C1245 2081,1211 1927,1201 1710 C1192 1519,1188 1510,1102 1510 L1047 1510 1053 1540 C1057 1562,1055 1570,1044 1570 C1036 1570,1030 1576,1030 1585 C1030 1593,1034 1600,1040 1600 C1045 1600,1050 1606,1050 1615 C1050 1623,1043 1630,1035 1630 C1026 1630,1020 1634,1020 1640 C1020 1645,1026 1650,1035 1650 C1052 1650,1053 1654,1039 1681 C1031 1695,1031 1705,1040 1715 C1046 1722,1048 1733,1045 1738 C1037 1751,1074 1963,1093 2015 C1101 2037,1126 2093,1149 2141 C1171 2189,1190 2230,1190 2233 C1190 2255,1150 2231,1096 2176 C946 2026,866 1802,885 1580 C897 1429,896 1413,871 1386 C841 1355,817 1348,786 1365 C768 1374,758 1375,750 1366 C741 1357,740 1363,745 1392 C751 1424,749 1429,736 1424 C725 1419,720 1423,720 1433 C720 1442,724 1450,730 1450 C735 1450,740 1459,740 1470 C740 1481,735 1488,730 1485 C719 1478,716 1492,725 1502 C729 1505,733 1543,735 1586 C739 1688,773 1854,810 1949 C847 2044,921 2165,996 2250 C1052 2314,1053 2315,1026 2318 C964 2325,803 2182,708 2035 C592 1857,545 1682,569 1518 C583 1425,625 1306,662 1257 C708 1195,712 1182,690 1160 C676 1146,656 1139,629 1140 C604 1140,591 1136,595 1130 C603 1115,579 1118,550 1134 C529 1145,528 1148,543 1156 C554 1162,558 1172,554 1183 C548 1199,545 1199,530 1185 C515 1171,511 1172,490 1194 L468 1218 490 1230 C510 1241,511 1243,495 1258 C481 1272,478 1273,470 1260 C462 1247,458 1247,445 1265 C424 1292,426 1303,450 1296 C467 1292,470 1294,464 1308 C432 1382,426 1416,422 1545 C415 1762,450 1901,549 2053 C599 2128,701 2232,782 2289 C808 2308,828 2327,825 2331 C813 2350,767 2348,717 2326 M2330 1280 L2330 1273C2330 1269,2331 1264,2334 1262 C2336 1259,2343 1260,2349 1264 C2355 1268,2360 1275,2360 1280 C2360 1285,2355 1290,2350 1290 L2340 1290L2325 1295 M1252 631 C1231 620,1200 597,1183 578 C1150 543,1090 452,1090 438 C1090 424,1138 428,1167 444 C1203 463,1283 547,1303 587 C1336 650,1319 664,1252 631 M1480 627 C1480 578,1566 477,1639 440 C1714 402,1720 439,1655 528 C1610 589,1550 635,1505 645 C1484 649,1480 646,1480 627 " />
</g>
<g id="layer102" fill="#fefefe" fill-rule="evenodd">
<path d="M1152 2630 C906 2576,708 2472,538 2308 C366 2141,246 1937,188 1714 C112 1417,152 1075,296 812 C650 162,1475 -44,2087 362 C2373 553,2573 864,2631 1208 C2647 1304,2644 1510,2626 1615 C2535 2136,2119 2551,1599 2639 C1495 2657,1251 2652,1152 2630 M717 2326 C542 2249,426 2131,330 1934 C261 1793,237 1682,236 1505 C235 1379,239 1340,258 1265 C305 1082,404 928,509 875 C576 841,667 826,734 839 C822 855,870 885,1008 1013 C1083 1083,1127 1103,1181 1094 C1229 1086,1259 1050,1259 1001 C1259 970,1248 954,1151 855 C1015 716,995 676,995 560 C995 487,999 466,1022 418 C1104 251,1316 163,1513 214 C1636 246,1722 314,1776 420 C1801 467,1804 486,1804 560 C1804 637,1801 650,1770 707 C1748 749,1705 799,1638 864 C1543 956,1540 961,1540 1002 C1540 1025,1546 1052,1553 1062 C1572 1087,1620 1102,1659 1094 C1702 1086,1729 1067,1844 967 C1947 876,1989 852,2068 839 C2255 808,2412 920,2502 1150 C2570 1320,2584 1562,2536 1742 C2473 1981,2341 2177,2175 2277 C2080 2334,1970 2363,1970 2332 C1970 2327,1991 2308,2017 2289 C2099 2231,2209 2117,2256 2043 C2350 1892,2386 1737,2376 1530 C2370 1396,2350 1318,2309 1266 L2289 1241 2310 1229 C2330 1218,2331 1217,2313 1198 C2302 1185,2287 1180,2272 1182 C2248 1187,2232 1175,2249 1165 C2267 1154,2261 1131,2238 1124 C2227 1121,2213 1122,2206 1129 C2200 1135,2181 1140,2163 1139 C2143 1139,2121 1148,2109 1160 L2088 1181 2111 1218 C2192 1352,2221 1430,2234 1555 C2260 1798,2083 2133,1848 2286 C1811 2310,1776 2330,1771 2330 C1744 2330,1751 2304,1787 2266 C1924 2124,2015 1934,2045 1726 C2054 1670,2064 1607,2069 1585 C2076 1554,2075 1541,2063 1528 C2050 1514,2051 1511,2072 1505 C2090 1499,2091 1496,2078 1493 C2069 1490,2059 1480,2056 1469 C2053 1454,2057 1449,2073 1449 C2093 1449,2093 1447,2067 1428 C2044 1411,2041 1405,2051 1393 C2064 1377,2065 1378,2020 1362 C1980 1348,1947 1360,1917 1401 C1899 1425,1898 1433,1910 1521 C1938 1738,1881 1958,1755 2118 C1699 2189,1610 2260,1610 2234 C1610 2231,1627 2191,1649 2145 C1703 2032,1740 1902,1747 1797 C1751 1728,1756 1710,1768 1710 C1780 1710,1780 1707,1766 1691 C1745 1668,1745 1650,1765 1650 C1786 1650,1783 1636,1757 1620 L1735 1607 1759 1598 L1783 1589 1760 1573 C1744 1562,1739 1550,1742 1533 C1747 1511,1744 1510,1694 1510 C1649 1510,1638 1513,1620 1536 C1602 1559,1600 1576,1600 1667 C1600 1725,1592 1820,1584 1878 C1560 2037,1484 2260,1459 2244 C1446 2236,1447 1963,1459 1955 C1466 1951,1464 1937,1454 1919 C1440 1891,1440 1890,1459 1890 C1486 1890,1485 1873,1458 1866 L1436 1860 1460 1840 C1480 1824,1482 1820,1467 1820 C1456 1820,1450 1812,1450 1798 C1450 1784,1454 1779,1465 1783 C1474 1787,1480 1783,1480 1774 C1480 1766,1473 1760,1465 1760 C1456 1760,1450 1753,1450 1745 C1450 1736,1456 1730,1465 1730 C1473 1730,1480 1723,1480 1715 C1480 1706,1473 1700,1465 1700 C1448 1700,1444 1674,1460 1665 C1476 1654,1471 1643,1435 1616 L1401 1590 1366 1612 C1330 1635,1321 1653,1340 1665 C1355 1674,1351 1700,1335 1700 C1315 1700,1316 1709,1336 1731 C1351 1748,1351 1750,1329 1758 L1305 1767 1327 1778 C1346 1788,1348 1794,1339 1811 C1332 1824,1331 1835,1338 1843 C1344 1850,1345 1861,1341 1867 C1337 1874,1337 1905,1341 1937 C1350 2014,1350 2210,1340 2235 C1333 2252,1330 2250,1312 2215 C1245 2081,1211 1927,1201 1710 C1192 1519,1188 1510,1102 1510 L1047 1510 1053 1540 C1057 1562,1055 1570,1044 1570 C1036 1570,1030 1576,1030 1585 C1030 1593,1034 1600,1040 1600 C1045 1600,1050 1606,1050 1615 C1050 1623,1043 1630,1035 1630 C1026 1630,1020 1634,1020 1640 C1020 1645,1026 1650,1035 1650 C1052 1650,1053 1654,1039 1681 C1031 1695,1031 1705,1040 1715 C1046 1722,1048 1733,1045 1738 C1037 1751,1074 1963,1093 2015 C1101 2037,1126 2093,1149 2141 C1171 2189,1190 2230,1190 2233 C1190 2255,1150 2231,1096 2176 C946 2026,866 1802,885 1580 C897 1429,896 1413,871 1386 C841 1355,817 1348,786 1365 C768 1374,758 1375,750 1366 C741 1357,740 1363,745 1392 C751 1424,749 1429,736 1424 C725 1419,720 1423,720 1433 C720 1442,724 1450,730 1450 C735 1450,740 1459,740 1470 C740 1481,735 1488,730 1485 C719 1478,716 1492,725 1502 C729 1505,733 1543,735 1586 C739 1688,773 1854,810 1949 C847 2044,921 2165,996 2250 C1052 2314,1053 2315,1026 2318 C964 2325,803 2182,708 2035 C592 1857,545 1682,569 1518 C583 1425,625 1306,662 1257 C708 1195,712 1182,690 1160 C676 1146,656 1139,629 1140 C604 1140,591 1136,595 1130 C603 1115,579 1118,550 1134 C529 1145,528 1148,543 1156 C554 1162,558 1172,554 1183 C548 1199,545 1199,530 1185 C515 1171,511 1172,490 1194 L468 1218 490 1230 C510 1241,511 1243,495 1258 C481 1272,478 1273,470 1260 C462 1247,458 1247,445 1265 C424 1292,426 1303,450 1296 C467 1292,470 1294,464 1308 C432 1382,426 1416,422 1545 C415 1762,450 1901,549 2053 C599 2128,701 2232,782 2289 C808 2308,828 2327,825 2331 C813 2350,767 2348,717 2326 M2330 1280 L2330 1273C2330 1269,2331 1264,2334 1262 C2336 1259,2343 1260,2349 1264 C2355 1268,2360 1275,2360 1280 C2360 1285,2355 1290,2350 1290 L2340 1290L2325 1295 M1252 631 C1231 620,1200 597,1183 578 C1150 543,1090 452,1090 438 C1090 424,1138 428,1167 444 C1203 463,1283 547,1303 587 C1336 650,1319 664,1252 631 M1480 627 C1480 578,1566 477,1639 440 C1714 402,1720 439,1655 528 C1610 589,1550 635,1505 645 C1484 649,1480 646,1480 627 " />
</g>

</svg>