<?xml version="1.0" standalone="no"?>
<!DOCTYPE svg PUBLIC "-//W3C//DTD SVG 20010904//EN"
 "http://www.w3.org/TR/2001/REC-SVG-20010904/DTD/svg10.dtd">
<svg version="1.0" xmlns="http://www.w3.org/2000/svg"
 width="280.000000pt" height="280.000000pt" viewBox="0 0 280.000000 280.000000"
 preserveAspectRatio="xMidYMid meet">
<metadata>
Created by potrace 1.10, written by Peter Selinger 2001-2011
</metadata>
<g transform="translate(0.000000,280.000000) scale(0.100000,-0.100000)"
fill="#ffffff" stroke="none">
<path d="M1185 2709 c-177 -26 -431 -135 -586 -253 -256 -194 -429 -465 -501
-786 -20 -90 -23 -131 -22 -285 0 -157 4 -194 26 -290 33 -140 75 -248 139
-361 200 -349 527 -585 917 -660 119 -23 375 -23 494 0 270 52 495 172 688
365 202 202 331 447 381 721 16 88 16 357 0 455 -16 97 -61 242 -107 344 -85
186 -277 414 -445 529 -159 108 -351 186 -528 216 -103 17 -352 20 -456 5z
m435 -85 c368 -65 696 -305 879 -644 152 -282 183 -657 82 -967 -63 -193 -168
-362 -313 -505 -237 -234 -538 -358 -868 -358 -598 0 -1100 413 -1227 1010
-25 118 -25 363 1 480 73 337 257 610 536 795 271 181 584 246 910 189z m1047
-1501 c-16 -124 -95 -311 -195 -463 -69 -104 -242 -280 -337 -342 -114 -75
-346 -180 -362 -164 -2 2 19 12 48 21 86 29 219 99 311 165 105 75 267 239
330 335 89 136 175 336 194 453 9 58 18 53 11 -5z"/>
<path d="M1267 2585 c-105 -29 -194 -103 -248 -205 -20 -38 -24 -59 -24 -140
0 -86 3 -100 29 -148 16 -28 76 -99 134 -157 104 -104 105 -105 99 -146 -8
-61 -30 -79 -95 -79 -62 0 -83 12 -177 101 -136 128 -225 168 -349 155 -161
-17 -284 -138 -355 -352 -42 -124 -54 -218 -48 -359 5 -142 32 -254 87 -373
91 -193 200 -312 356 -388 100 -49 146 -59 152 -33 2 10 -19 32 -55 59 -186
140 -292 300 -334 504 -32 156 -18 395 27 464 16 24 16 25 -10 18 -29 -7 -32
0 -12 27 16 21 24 22 28 1 3 -14 6 -14 28 4 l25 20 -28 13 -27 12 22 24 22 24
17 -22 17 -22 7 23 c5 17 3 26 -10 33 -17 9 -16 11 6 23 31 17 50 18 43 1 -4
-10 3 -12 26 -9 35 5 80 -20 80 -45 0 -9 -11 -31 -26 -50 -95 -125 -136 -333
-99 -506 27 -128 128 -313 235 -430 84 -92 240 -187 240 -146 0 6 -22 37 -49
68 -109 127 -180 256 -220 401 -29 103 -55 295 -43 317 7 12 4 21 -12 35 l-21
19 23 -6 c18 -5 22 -2 22 14 0 12 -7 21 -15 21 -8 0 -15 7 -15 15 0 13 4 14
22 4 18 -10 20 -9 14 6 -3 9 -9 29 -13 43 -6 24 -4 25 9 14 11 -9 18 -10 23
-2 8 13 51 13 76 0 10 -6 26 -24 34 -41 14 -25 14 -39 4 -90 -15 -75 -6 -262
15 -344 9 -33 37 -102 62 -154 37 -75 62 -110 124 -173 53 -53 82 -76 93 -72
13 5 8 22 -32 103 -49 101 -68 163 -95 311 -10 56 -12 86 -5 89 6 2 3 11 -7
22 -16 18 -16 20 -1 37 22 24 21 32 -3 32 -11 0 -20 5 -20 11 0 6 9 9 20 6 16
-4 20 0 20 20 0 18 -4 24 -15 19 -9 -3 -15 0 -15 10 0 11 6 13 20 9 18 -6 19
-4 10 20 -16 43 -13 46 48 43 54 -3 58 -5 74 -38 14 -27 18 -60 18 -147 0 -61
5 -146 11 -189 21 -152 108 -396 130 -364 13 20 8 403 -5 412 -6 4 -4 14 7 26
19 21 14 32 -15 32 -10 0 -18 5 -18 10 0 6 11 10 25 10 30 0 32 11 5 28 -11 7
-20 17 -20 23 0 6 9 9 20 6 24 -6 27 15 5 33 -18 15 -20 40 -3 40 6 0 22 10
35 22 l23 21 23 -20 c12 -11 31 -25 41 -30 19 -10 18 -11 -2 -22 -29 -15 -30
-51 -2 -44 14 4 20 0 20 -12 0 -11 -5 -15 -14 -12 -8 3 -17 -1 -20 -9 -9 -23
-8 -24 14 -24 11 0 20 -7 20 -16 0 -8 -5 -12 -11 -8 -6 3 -15 0 -20 -7 -14
-22 -11 -29 14 -30 l22 0 -22 -16 c-28 -19 -29 -33 -3 -33 11 0 20 -4 20 -10
0 -5 -9 -10 -20 -10 -24 0 -25 -4 -4 -34 10 -16 12 -26 5 -31 -13 -8 -15 -305
-3 -305 13 0 57 96 86 188 37 117 56 248 56 382 0 97 3 120 20 147 18 31 23
33 75 33 54 0 54 0 45 -25 -8 -22 -6 -27 17 -38 l26 -11 -29 -12 -29 -12 28
-13 c32 -14 35 -29 7 -29 -26 0 -25 -8 2 -37 18 -20 19 -23 5 -23 -13 0 -17
-9 -17 -39 0 -111 -55 -309 -118 -426 -24 -44 -27 -56 -17 -65 11 -9 29 4 82
57 81 80 121 138 162 236 47 114 65 222 58 351 -4 61 -9 122 -12 136 -5 17 1
36 17 60 21 31 29 35 64 33 21 -1 50 -3 64 -3 l25 0 -24 -19 -24 -19 34 -18
c31 -17 32 -19 12 -22 -13 -2 -23 -10 -23 -18 0 -8 10 -19 23 -24 l22 -9 -22
-7 c-27 -8 -29 -19 -7 -32 12 -7 14 -14 6 -28 -5 -10 -13 -53 -17 -94 -21
-216 -105 -414 -249 -584 -31 -36 -56 -70 -56 -76 0 -22 42 -8 113 40 199 133
357 402 374 635 10 136 -31 290 -106 399 -17 25 -31 53 -31 64 0 20 37 42 71
42 10 0 28 6 39 12 16 11 23 10 37 -6 13 -13 15 -20 6 -23 -7 -3 -13 -13 -13
-24 0 -22 4 -23 30 -7 17 11 23 9 42 -9 l21 -22 -26 -6 c-33 -9 -33 -10 -3
-46 52 -62 68 -130 70 -299 1 -176 -13 -253 -70 -378 -61 -134 -145 -234 -282
-334 -52 -39 -59 -48 -49 -62 11 -15 17 -15 70 3 242 83 415 292 499 601 32
120 32 343 0 475 -47 189 -148 342 -261 398 -59 29 -74 32 -156 32 -113 0
-168 -24 -275 -123 -123 -113 -155 -132 -216 -132 -45 0 -56 4 -73 26 -13 16
-21 41 -21 64 0 33 7 45 62 96 110 105 148 148 176 204 23 48 27 67 27 145 0
97 -15 138 -77 217 -88 113 -296 168 -461 123z m266 -45 c73 -23 151 -79 181
-130 l18 -32 -26 17 c-32 21 -63 15 -122 -26 -66 -45 -144 -152 -144 -197 0
-19 43 -52 68 -52 61 0 181 110 219 200 l15 34 15 -28 c11 -21 14 -49 11 -101
-6 -98 -44 -162 -154 -262 -115 -105 -137 -160 -94 -230 28 -47 65 -67 119
-66 63 1 89 16 205 118 129 112 178 137 271 138 42 0 92 -7 125 -18 195 -65
332 -442 276 -761 -40 -230 -160 -444 -310 -555 -60 -44 -63 -35 -9 28 103
120 158 224 196 367 28 107 30 346 3 445 -9 35 -15 70 -12 78 3 8 -1 24 -9 36
-8 12 -15 30 -15 40 0 25 -104 127 -129 127 -58 0 -122 -23 -146 -52 -32 -38
-29 -58 21 -139 19 -31 47 -89 61 -130 23 -64 26 -91 26 -194 1 -131 -13 -185
-75 -309 -56 -112 -172 -266 -201 -266 -4 0 4 19 18 43 82 132 136 292 160
478 19 141 18 196 -3 263 -12 39 -21 51 -48 62 -53 22 -89 17 -127 -16 -44
-38 -58 -90 -45 -162 15 -77 3 -250 -22 -338 -24 -84 -81 -199 -113 -227 -20
-18 -20 -17 -13 2 36 97 78 333 78 436 0 55 -19 115 -46 147 -38 43 -145 19
-177 -40 -8 -14 -16 -85 -20 -183 -7 -158 -28 -286 -55 -335 -13 -22 -14 -11
-8 95 4 66 7 164 7 217 -1 111 -12 138 -68 165 -33 16 -37 16 -70 0 -70 -33
-78 -83 -62 -362 10 -158 0 -171 -33 -44 -19 74 -29 167 -34 329 -3 98 -20
141 -68 166 -44 23 -115 14 -139 -17 -45 -59 -32 -317 26 -517 9 -30 14 -56
12 -59 -8 -8 -47 54 -83 132 -54 117 -68 203 -60 378 5 121 4 152 -9 176 -48
95 -169 92 -210 -5 -17 -41 -17 -158 1 -279 27 -184 63 -297 139 -430 25 -43
45 -81 45 -84 0 -13 -86 79 -125 134 -191 267 -215 538 -70 780 50 82 52 97
18 134 -22 25 -41 34 -90 43 l-63 11 -46 -39 c-58 -49 -105 -133 -108 -194 -1
-25 -8 -79 -15 -120 -20 -113 -10 -293 23 -403 41 -139 111 -261 204 -359 47
-50 28 -48 -39 2 -111 83 -220 256 -275 435 -25 82 -28 104 -28 260 -1 193 14
264 82 404 74 151 179 225 322 225 90 0 152 -31 273 -138 119 -104 140 -116
211 -116 65 0 108 29 127 87 20 61 1 96 -111 210 -118 120 -150 176 -150 268
0 67 8 105 21 105 5 0 17 -17 28 -38 11 -21 41 -62 67 -91 79 -88 166 -117
200 -66 15 23 14 27 -9 77 -46 99 -167 197 -229 184 -25 -5 -27 -3 -19 12 12
21 57 64 93 87 87 55 238 70 351 35z m161 -175 c8 -21 -2 -44 -42 -95 -43 -55
-66 -75 -114 -100 -48 -26 -58 -25 -58 3 0 41 74 130 149 178 52 33 57 34 65
14z m-508 -23 c21 -16 54 -46 73 -67 37 -43 75 -118 61 -123 -5 -2 -32 7 -60
19 -56 24 -102 71 -144 149 l-27 50 29 0 c16 0 46 -13 68 -28z m1172 -820 c2
-7 -3 -12 -12 -12 -9 0 -16 7 -16 16 0 17 22 14 28 -4z"/>
</g>
</svg>
